<svg
    width="41"
    height="24"
    viewBox="0 0 41 24"
    fill="none"
    xmlns="http://www.w3.org/2000/svg">
    <path 
        d="M0 21V1.25C0 1.11193 0.111929 1 0.25 1H9.7606C10.7089 1 11.5268 1.6659 11.7191 2.59446L13.3365 10.4055C13.5288 11.3341 14.3467 12 15.295 12H25.705C26.6533 12 27.4712 11.3341 27.6635 10.4055L29.2809 2.59446C29.4732 1.6659 30.2911 1 31.2394 1H40.75C40.8881 1 41 1.11193 41 1.25V21C41 22.1046 40.1046 23 39 23H2C0.89543 23 0 22.1046 0 21Z"
        fill="#8F8E8E"
    />
</svg>