<svg width="26" height="30" viewBox="0 0 26 30" fill="none" xmlns="http://www.w3.org/2000/svg">
<path d="M1 1.5V17H10.382C10.6827 17 10.833 17 10.9538 17.0747C11.0747 17.1493 11.1419 17.2838 11.2764 17.5528L12.7236 20.4472C12.8581 20.7162 12.9253 20.8507 13.0462 20.9253C13.167 21 13.3173 21 13.618 21H24.5C24.7357 21 24.8536 21 24.9268 20.9268C25 20.8536 25 20.7357 25 20.5V5.5C25 5.2643 25 5.14645 24.9268 5.07322C24.8536 5 24.7357 5 24.5 5H13.618C13.3173 5 13.167 5 13.0462 4.92533C12.9253 4.85065 12.8581 4.71617 12.7236 4.44721L11.2764 1.55279C11.1419 1.28383 11.0747 1.14935 10.9538 1.07467C10.833 1 10.6827 1 10.382 1H1.5C1.2643 1 1.14645 1 1.07322 1.07322C1 1.14645 1 1.2643 1 1.5Z" fill="#F89C68"/>
<path d="M1 17V1.5C1 1.2643 1 1.14645 1.07322 1.07322C1.14645 1 1.2643 1 1.5 1H10.382C10.6827 1 10.833 1 10.9538 1.07467C11.0747 1.14935 11.1419 1.28383 11.2764 1.55279L12.7236 4.44721C12.8581 4.71617 12.9253 4.85065 13.0462 4.92533C13.167 5 13.3173 5 13.618 5H24.5C24.7357 5 24.8536 5 24.9268 5.07322C25 5.14645 25 5.2643 25 5.5V20.5C25 20.7357 25 20.8536 24.9268 20.9268C24.8536 21 24.7357 21 24.5 21H13.618C13.3173 21 13.167 21 13.0462 20.9253C12.9253 20.8507 12.8581 20.7162 12.7236 20.4472L11.2764 17.5528C11.1419 17.2838 11.0747 17.1493 10.9538 17.0747C10.833 17 10.6827 17 10.382 17H1ZM1 17V29" stroke="#F89C68" stroke-width="1.8" stroke-linecap="round"/>
</svg>
